<?xml version="1.0" encoding="utf-8"?>
<svg version="1.1" id="duosos" xmlns="http://www.w3.org/2000/svg" xmlns:xlink="http://www.w3.org/1999/xlink" x="0px" y="0px"
	 viewBox="0 0 1000 1000" style="enable-background:new 0 0 1000 1000;" xml:space="preserve">
<style type="text/css">
	.st0{fill:none;stroke:#000000;stroke-width:20;stroke-miterlimit:10;}
	.st1{fill:#E60012;stroke:#000000;stroke-width:20;stroke-miterlimit:10;}
</style>
<path id="a" d="M633.5,706.8c-6.8,9.7-15.2,18.1-24.9,24.9c1.3,4,3.7,10.8,7.6,20.4c8.7,21,21.5,40.4,24.9,39.5
	c3.2-0.8,5.8-18.2,2.8-37.9C641.7,739.9,636,716.6,633.5,706.8z"/>
<path id="b" d="M583.5,743.9c-11,3.3-22.8,4.5-34.9,3.8c4.2,5.3,12.7,15.4,22.5,23.7c17.3,14.7,37.6,26.1,40.2,23.8
	c2.5-2.2-3.1-18.9-14.8-34.9C590.7,752.3,586.3,747,583.5,743.9z"/>
<path id="c" class="st0" d="M471.2,619.8c-29.8,0-58.7-3.4-86.1-9.8c5.2,9.6,20.8,36.7,44.4,67.2c13.2,17.1,39.2,42.2,67.6,56.4
	c35,17.4,75.1,19.8,105.1,2.3c23.3-13.6,40.1-36.4,47.5-63.3c8.9-32.4,3.5-89.3,2.4-99.7C600.5,602.5,538.3,619.8,471.2,619.8z"/>
<path id="d" d="M730.6,615.7c-4.7-6.5-14.8-9.2-20.5-9.5c-10.5-0.5-19.6,18.4-19.6,18.4s-9.3-3.9-16.8-7.1c-5-2.1-14-9.8-19.4-14.8
	c0.5,12.2,0.7,26.5-0.1,40.2c7.4,5.5,21.4,13.8,37.4,13.8c23.8,0,43.1-11,43.1-24.6C734.5,628.5,735.3,622.2,730.6,615.7z"/>
<path id="e" d="M429.5,677.2c-23.6-30.6-39.1-57.7-44.4-67.2c0,0,0,0,0,0c-45.1-10.5-86.2-29.1-121-53.8c-2.7,5.6-4.5,12.4-4.1,20.6
	c0.4,8.3,7.8,42.5,46.5,65.4c45.5,27,116.8,46.5,137.9,51.9C438.5,688.1,433.4,682.3,429.5,677.2z"/>
<path id="f" class="st1" d="M870,628c0,0-9.7-9.6-23.2-15.1c-8.2-3.3-47.2-4.6-47.2-4.6s-22.5,1.8-36.9-0.6
	c-8.6-1.4-18-5.2-30.5-7.6c-2.9-0.6-17.8-1.8-33.5-2c-23.3-0.2-50.4,1.8-50.4,1.8l1.3-9.9c0,0,20.9-26.4,55.8-41.7
	c15.8-6.9,36.2-10,55.9-10c27.7,0,54,16.3,72.6,35.7c7.5,7.9,20.9,10.1,26.1,17.7C871.3,607.9,870,628,870,628z"/>
<path id="g" class="st1" d="M471.2,619.8c-29.8,0-58.6-3.4-86-9.8c8.9,14.7,31.7,47.3,67.2,60.6c40.2,15.1,95.7,3.8,110.1-1.2
	c24.2-8.4,48.4-24.9,63.9-39c17.3-15.7,31.4-50.7,36.3-63.8C609.3,599.9,543,619.8,471.2,619.8z"/>
<ellipse id="h" class="st0" cx="471.2" cy="350.9" rx="320.7" ry="268.8"/>
<path id="i" d="M165,270.8c24.8-66.8,79.9-122.4,151.8-155.6C292.5,87,252.9,69.9,216.1,75.8c-58.7,9.4-98,69.2-87.7,133.4
	c2.3,14.3,6.4,26.7,13.3,36.9C147.2,254.2,157.1,263.1,165,270.8z"/>
<path id="j" d="M743,208.2c4.1-6.4,9.3-14.3,11.8-20.9c8.1-21.7,10.8-46.6,6.7-72.3C750.3,45.7,693.7-2.7,635,6.7
	c-36.2,5.8-64.8,32.3-78.8,67.9c-1.6,4.2-4.4,10.5-6.1,15.6C631,107.4,699.7,150.4,743,208.2z"/>
<path id="k" d="M645.9,213.6c-50-39.4-111.5-44.7-137.4-11.8c-25.9,32.9-6.4,91.5,43.6,130.8c50,39.4,111.5,44.7,137.4,11.8
	C715.4,311.6,695.9,253,645.9,213.6z M606.4,291.3c-6.7,11.8-26.6,13.2-44.5,3.1c-17.9-10.1-27-27.9-20.3-39.7
	c6.7-11.8,26.6-13.2,44.5-3.1C604,261.7,613.1,279.5,606.4,291.3z"/>
<path id="l" d="M355.1,236.1c-30.4-24-83.9-6.8-119.4,38.3c-35.5,45.1-39.7,101.1-9.3,125.1c30.4,24,83.9,6.8,119.4-38.3
	C381.4,316.1,385.5,260.1,355.1,236.1z M319.2,323.2c-8.6,12-22.6,16.8-31.2,10.6c-8.6-6.2-8.6-20.9,0-32.9
	c8.6-12,22.6-16.8,31.2-10.6C327.9,296.4,327.9,311.2,319.2,323.2z"/>
<path id="m" d="M491.8,433.5c2.8,6.1,3.6,17.9-0.2,28.5c-3.9,10.8-12.5,20.5-20.5,21.7c-15.8,2.5-37.8-10.6-39-25.8
	c-1.2-15.2,16.9-8.9,28.9-14.6C473.1,437.7,486.1,421.1,491.8,433.5z"/>
<path id="n" d="M467,541c1.4,0.2,18.6,1.1,30.9-4c5.5-2.3,12.9-6.6,19.7-12.1c8.3-6.8,15.7-14.8,17.4-16.6
	c3.7-3.9,10.5-12.5,12.3-15.3c1-1.6,4.1-0.6,6.6,1.3c1.9,1.4,3.6,3.4,3.7,5c0.2,2.2-16.4,24.6-36.6,38.7c-14.3,10-21.6,11-29.8,12.9
	s-22.1,2.1-23.3,1.8c-1.3-0.3-2.4-1-3.9-2.4s-1.9-3.2-1.9-5C462.2,542,465.5,540.8,467,541z"/>
</svg>
