<?xml version="1.0" encoding="utf-8"?>
<svg version="1.1" id="d_1_" xmlns="http://www.w3.org/2000/svg" xmlns:xlink="http://www.w3.org/1999/xlink" x="0px" y="0px"
	 viewBox="436 -436 1000 1000" style="enable-background:new 436 -436 1000 1000;" xml:space="preserve">
<style type="text/css">
	.st0{fill:#999999;}
	.st1{font-family:'OPPOSans-R';}
	.st2{font-size:58px;}
	.st3{fill:#333333;}
	.st4{font-family:'OPPOSans-M';}
	.st5{font-size:128px;}
	.st6{fill:none;stroke:#000000;stroke-width:20;stroke-miterlimit:10;}
	.st7{fill:#E60012;stroke:#000000;stroke-width:20;stroke-miterlimit:10;}
</style>
<text id="o" transform="matrix(1 0 0 1 608.3918 460.8154)" class="st0 st1 st2">http://open.duosos.com</text>
<text id="c_1_" transform="matrix(1 0 0 1 593.9258 341.1191)" class="st3 st4 st5">Duosos Ch</text>
<g id="l_1_">
	<path id="a" d="M1029.1,127.1c-4.7,6.7-10.5,12.5-17.2,17.2c0.9,2.8,2.5,7.4,5.2,14.1c6,14.5,14.8,27.8,17.2,27.2
		c2.2-0.6,4-12.5,1.9-26.1C1034.7,149.9,1030.8,133.8,1029.1,127.1z"/>
	<path id="b" d="M994.6,152.6c-7.6,2.3-15.7,3.1-24,2.6c2.9,3.7,8.7,10.6,15.5,16.3c11.9,10.1,25.9,18,27.7,16.4
		c1.7-1.5-2.1-13-10.2-24C999.6,158.4,996.5,154.7,994.6,152.6z"/>
	<path id="c" class="st6" d="M917.3,67.1c-20.5,0-40.4-2.3-59.3-6.8c3.6,6.6,14.3,25.3,30.6,46.3c9.1,11.8,27,29.1,46.6,38.9
		c24.1,12,51.7,13.6,72.4,1.6c16-9.4,27.6-25.1,32.7-43.6c6.1-22.3,2.4-61.5,1.7-68.7C1006.3,55.2,963.5,67.1,917.3,67.1z"/>
	<path id="d" d="M1095.9,64.3c-3.2-4.5-10.2-6.3-14.1-6.5c-7.2-0.3-13.5,12.7-13.5,12.7s-6.4-2.7-11.6-4.9
		c-3.4-1.4-9.6-6.8-13.4-10.2c0.3,8.4,0.5,18.3-0.1,27.7c5.1,3.8,14.7,9.5,25.8,9.5c16.4,0,29.7-7.6,29.7-16.9
		C1098.6,73.1,1099.2,68.8,1095.9,64.3z"/>
	<path id="e" d="M888.5,106.7c-16.3-21.1-26.9-39.7-30.6-46.3l0,0c-31.1-7.2-59.4-20-83.3-37.1c-1.9,3.9-3.1,8.5-2.8,14.2
		c0.3,5.7,5.4,29.3,32,45c31.3,18.6,80.5,32,95,35.8C894.7,114.2,891.2,110.2,888.5,106.7z"/>
	<path id="f" class="st7" d="M1192,72.8c0,0-6.7-6.6-16-10.4c-5.6-2.3-32.5-3.2-32.5-3.2s-15.5,1.2-25.4-0.4c-5.9-1-12.4-3.6-21-5.2
		c-2-0.4-12.3-1.2-23.1-1.4c-16-0.1-34.7,1.2-34.7,1.2l0.9-6.8c0,0,14.4-18.2,38.4-28.7c10.9-4.8,24.9-6.9,38.5-6.9
		c19.1,0,37.2,11.2,50,24.6c5.2,5.4,14.4,7,18,12.2C1192.9,58.9,1192,72.8,1192,72.8z"/>
	<path id="g" class="st7" d="M917.3,67.1c-20.5,0-40.4-2.3-59.2-6.8c6.1,10.1,21.8,32.6,46.3,41.7c27.7,10.4,65.9,2.6,75.8-0.8
		c16.7-5.8,33.3-17.2,44-26.9c11.9-10.8,21.6-34.9,25-43.9C1012.4,53.4,966.7,67.1,917.3,67.1z"/>
	<ellipse id="h" class="st6" cx="917.3" cy="-118.1" rx="220.9" ry="185.2"/>
	<path id="i" d="M706.3-173.3c17.1-46,55-84.3,104.6-107.2c-16.7-19.4-44-31.2-69.4-27.1c-40.4,6.5-67.5,47.7-60.4,91.9
		c1.6,9.9,4.4,18.4,9.2,25.4C694.1-184.7,700.9-178.6,706.3-173.3z"/>
	<path id="j" d="M1104.5-216.4c2.8-4.4,6.4-9.9,8.1-14.4c5.6-14.9,7.4-32.1,4.6-49.8c-7.7-47.7-46.7-81.1-87.1-74.6
		c-24.9,4-44.6,22.2-54.3,46.8c-1.1,2.9-3,7.2-4.2,10.7C1027.3-285.8,1074.7-256.2,1104.5-216.4z"/>
	<path id="k" d="M1037.6-212.7c-34.4-27.1-76.8-30.8-94.6-8.1s-4.4,63,30,90.1c34.4,27.1,76.8,30.8,94.6,8.1
		C1085.5-145.2,1072-185.5,1037.6-212.7z M1010.4-159.2c-4.6,8.1-18.3,9.1-30.7,2.1c-12.3-7-18.6-19.2-14-27.3
		c4.6-8.1,18.3-9.1,30.7-2.1C1008.7-179.5,1015-167.3,1010.4-159.2z"/>
	<path id="l" d="M837.3-197.2c-20.9-16.5-57.8-4.7-82.2,26.4s-27.3,69.6-6.4,86.2c20.9,16.5,57.8,4.7,82.2-26.4
		C855.4-142.1,858.2-180.6,837.3-197.2z M812.6-137.2c-5.9,8.3-15.6,11.6-21.5,7.3c-5.9-4.3-5.9-14.4,0-22.7s15.6-11.6,21.5-7.3
		C818.6-155.6,818.6-145.4,812.6-137.2z"/>
	<path id="m" d="M931.5-61.2c1.9,4.2,2.5,12.3-0.1,19.6c-2.7,7.4-8.6,14.1-14.1,14.9c-10.9,1.7-26-7.3-26.9-17.8s11.6-6.1,19.9-10.1
		C918.6-58.3,927.5-69.7,931.5-61.2z"/>
	<path id="n" d="M914.4,12.8c1,0.1,12.8,0.8,21.3-2.8c3.8-1.6,8.9-4.5,13.6-8.3c5.7-4.7,10.8-10.2,12-11.4c2.5-2.7,7.2-8.6,8.5-10.5
		c0.7-1.1,2.8-0.4,4.5,0.9c1.3,1,2.5,2.3,2.5,3.4c0.1,1.5-11.3,16.9-25.2,26.7c-9.9,6.9-14.9,7.6-20.5,8.9c-5.6,1.3-15.2,1.4-16,1.2
		c-0.9-0.2-1.7-0.7-2.7-1.7S911,17,911,15.8C911.1,13.5,913.3,12.7,914.4,12.8z"/>
</g>
</svg>
